Coordinates
version=1
nRows=9
nColumns=36
inDegrees=yes

Units are S.I. units (second, meters, Newtons, ...)
If the header above contains a line with 'inDegrees', this indicates whether rotational values are in degrees (yes) or radians (no).

endheader
time	pelvis_tilt	pelvis_list	pelvis_rotation	pelvis_tx	pelvis_ty	pelvis_tz	hip_flexion_r	hip_adduction_r	hip_rotation_r	knee_angle_r	knee_angle_r_beta	ankle_angle_r	subtalar_angle_r	mtp_angle_r	hip_flexion_l	hip_adduction_l	hip_rotation_l	knee_angle_l	knee_angle_l_beta	ankle_angle_l	subtalar_angle_l	mtp_angle_l	lumbar_extension	lumbar_bending	lumbar_rotation	arm_flex_r	arm_add_r	arm_rot_r	elbow_flex_r	pro_sup_r	arm_flex_l	arm_add_l	arm_rot_l	elbow_flex_l	pro_sup_l
      2.31666670	    -10.93376966	     -2.68358285	      6.21140016	      1.15869199	      1.05841196	     -0.06414781	     25.20411930	     -8.90792669	    -11.44468633	     24.59759800	      0.42930907	     -7.65899358	     -4.35490176	     -7.49999987	     27.65798437	     -8.32807722	    -10.36951991	     27.19709438	      0.47467884	     -6.04029526	     -0.81311850	     -7.49999987	     -7.45950328	      4.05282864	     13.33147451	    -84.31689967	    -10.79360271	    -30.12280939	     48.97917000	     84.58267434	      9.97386408	    -55.49115452	     47.01229344	     57.94144602	     77.16479237
      2.33333330	    -10.02248888	     -2.66456647	      5.67195613	      1.16689517	      1.09300348	     -0.07084341	     20.52396495	     -7.92060592	    -12.57041025	     15.62860231	      0.27277057	    -19.50537662	     -2.20170118	     -7.49999987	     22.79401602	     -7.56263038	     -9.66606928	     18.36878646	      0.32059580	    -17.50250056	     -0.90071883	     -7.49999987	     -5.81619627	      4.36343102	     13.35390081	    -87.48212105	     -9.52198273	    -32.56747844	     51.69544308	     88.99203097	     16.03047263	    -55.02400671	     47.61540897	     59.50499767	     80.42566809
      2.35000000	     -8.81519584	     -2.92712141	      4.86458449	      1.16606033	      1.13602913	     -0.07263926	     16.80590734	     -7.02002386	    -15.76299555	      8.02268597	      0.14002228	    -27.86408184	     -2.59803518	     -7.49999987	     18.79771303	     -7.36274094	     -8.83292626	     11.63014996	      0.20298441	    -27.58561068	      0.65061585	     -7.49999987	     -3.80492457	      4.44316645	     19.09404205	    -87.31430990	     -4.18957035	    -34.42329249	     50.05864877	     89.52509860	     35.18370290	    -43.96940189	     68.20212825	     44.24710956	     74.71697233
      2.36666670	     -7.79882445	     -3.37729342	      4.22308188	      1.16521675	      1.17945814	     -0.07386894	     14.19998874	     -5.86807054	    -20.12470746	      2.84063672	      0.04957846	    -34.78994221	     -3.89737806	     -7.49999987	     16.45871840	     -7.60361740	     -8.45391875	      7.58590370	      0.13239900	    -33.15487644	      0.98500738	     -7.49999987	     -3.63486966	      4.41867874	     19.40708161	    -82.61099682	     -5.04145091	    -34.61107018	     47.56771553	     91.22535728	     35.62139279	    -36.95533110	     65.94422905	     34.28687338	     75.47530118
      2.38333330	     -6.96711203	     -3.79808497	      4.82557011	      1.16751391	      1.21339583	     -0.07342237	     12.46064493	     -4.89665984	    -23.53209971	      0.79519708	      0.01387881	    -38.39564519	     -5.01340883	     -7.49999987	     15.14669257	     -7.65998899	     -8.56888872	      5.23192188	      0.09131426	    -36.18246681	      1.98038545	     -7.49999987	     -3.56271305	      3.61858748	     18.82074790	    -77.00944750	     -5.75011147	    -33.08765938	     42.12259425	     90.80114189	     34.21103905	    -27.71473461	     43.37828136	     21.19707183	     86.07305705
      2.40000000	     -6.34980358	     -3.99601396	      5.34823752	      1.15864944	      1.23717904	     -0.07513008	     11.57805023	     -4.08901607	    -24.85559282	      0.65619830	      0.01145282	    -38.68517912	     -5.35376107	     -7.49999987	     14.63598981	     -7.15748912	     -7.81428905	      4.50834661	      0.07868549	    -37.15418664	      3.31332586	     -7.49999987	     -4.33358086	      2.87062285	     19.01345447	    -72.40565202	     -5.84875077	    -30.70963203	     39.78931167	     90.96529404	     36.27375796	    -21.52529392	     31.49247815	     13.81817338	     92.36722924
      2.41666670	     -5.67587952	     -4.02872981	      5.61693019	      1.15792570	      1.25268464	     -0.07023453	     10.82882688	     -3.32649654	    -24.36638074	      0.70586636	      0.01231969	    -36.96882065	     -4.96693640	     -7.49999987	     14.14829102	     -6.82539652	     -6.57056137	      4.54191537	      0.07927138	    -36.26648373	      4.30173264	     -7.49999987	     -5.39779313	      2.34227728	     18.17197096	    -69.39734000	     -5.55815484	    -29.54159388	     39.54192754	     89.07171994	     36.20307316	    -20.22682437	     27.95367213	     12.57725683	     89.57946781
      2.43333330	     -5.36576703	     -4.03768430	      5.81069303	      1.16098573	      1.25961726	     -0.06765914	     10.67224285	     -2.67479084	    -23.38568366	      0.82282073	      0.01436093	    -33.29241655	     -5.50877106	     -7.49999987	     14.04178036	     -6.75681382	     -5.49985269	      4.44459434	      0.07757281	    -34.42281115	      4.26333259	     -7.49999987	     -6.11127245	      2.01654059	     17.14967298	    -67.52885754	     -5.27214080	    -27.98479147	     39.81181815	     89.38440017	     33.78491669	    -20.74056758	     24.83787793	     17.54925082	     89.43333846
      2.45000000	     -5.23195917	     -4.03618089	      5.67766239	      1.15454999	      1.27975402	     -0.07439678	     11.28713298	     -2.63371581	    -22.47714571	      0.86135582	      0.01503350	    -27.35585532	     -5.79436029	     -7.49999987	     14.36903014	     -6.66508443	     -4.22993642	      4.39238938	      0.07666166	    -30.96709834	      3.29351475	     -7.49999987	     -6.92041413	      1.79358335	     16.54532476	    -64.21765821	     -6.30418337	    -25.11582456	     39.28102233	     87.84609372	     31.96783906	    -20.06271029	     20.72167694	     20.04266526	     89.74264075
